<?xml version="1.0" encoding="UTF-8" standalone="no"?>
<svg
   xmlns:dc="http://purl.org/dc/elements/1.1/"
   xmlns:cc="http://creativecommons.org/ns#"
   xmlns:rdf="http://www.w3.org/1999/02/22-rdf-syntax-ns#"
   xmlns:svg="http://www.w3.org/2000/svg"
   xmlns="http://www.w3.org/2000/svg"
   version="1.1"
   id="svg2"
   viewBox="0 0 258.66128 389.76351"
   height="110mm"
   width="73mm">
  <defs
     id="defs4" />
  <metadata
     id="metadata7">
    <rdf:RDF>
      <cc:Work
         rdf:about="">
        <dc:format>image/svg+xml</dc:format>
        <dc:type
           rdf:resource="http://purl.org/dc/dcmitype/StillImage" />
        <dc:title></dc:title>
      </cc:Work>
    </rdf:RDF>
  </metadata>
  <g
     transform="translate(0,-662.59853)"
     id="layer1">
    <g
       transform="translate(-1512.683,-1152.8346)"
       id="g6008">
      <g
         style="fill:#000000"
         transform="matrix(2.7964908,0,0,2.7964908,-4045.889,-2990.0973)"
         id="g4924">
        <g
           style="fill:#000000"
           id="g4926">
          <path
             d="m 2073.0336,1728.94 -2e-4,20.8349 -18.0437,10.4173 -18.0437,-10.4173 0,-20.8349 18.0437,-10.4176 18.0439,10.4176 z"
             style="fill:#000000;fill-rule:evenodd"
             id="path4928" />
          <path
             d="m 2018.9268,1763.6771 -3e-4,17.358 -15.0321,8.6788 -15.0324,-8.6788 0,-17.358 15.0324,-8.6788 15.0324,8.6788 z"
             style="fill:#000000;fill-rule:evenodd"
             id="path4930" />
          <path
             d="m 2030.9094,1739.3547 0,13.8742 -12.0155,6.937 -12.0155,-6.937 0,-13.8742 12.0155,-6.9372 12.0155,6.9372 z"
             style="fill:#000000;fill-rule:evenodd"
             id="path4932" />
          <path
             d="m 2036.9784,1791.4309 -3e-4,10.4757 -9.072,5.2376 -9.0723,-5.2376 0,-10.4757 9.0723,-5.2379 9.0723,5.2379 z"
             style="fill:#000000;fill-rule:evenodd"
             id="path4934" />
          <path
             d="m 2079.0238,1763.6587 0,13.8742 -12.0155,6.9372 -12.0155,-6.9372 0,-13.8739 12.0155,-6.9372 12.0155,6.9369 z"
             style="fill:#000000;fill-rule:evenodd"
             id="path4936" />
          <path
             d="m 2070.0422,1789.6609 0,17.3577 -15.0324,8.6788 -15.0324,-8.6788 3e-4,-17.3577 15.0321,-8.6788 15.0324,8.6788 z"
             style="fill:#000000;fill-rule:evenodd"
             id="path4938" />
        </g>
        <path
           d="m 1989.9298,1826.2029 0,17.2794 c 0.01,3.2706 0.4977,5.959 1.4706,8.0499 0.9728,2.0987 2.3743,3.6535 4.2125,4.6567 1.8383,1.0035 4.0672,1.5012 6.679,1.4936 2.7037,0 5.0168,-0.5054 6.9472,-1.5319 1.9224,-1.0261 3.3931,-2.5812 4.4192,-4.672 1.0188,-2.0835 1.5398,-4.7183 1.5474,-7.9044 l 0,-17.3713 -6.9854,0 0,17.7848 c -0.01,2.7497 -0.4977,4.7872 -1.4706,6.1121 -0.9728,1.3252 -2.382,1.984 -4.2279,1.9763 -1.7847,0 -3.1558,-0.6741 -4.1284,-2.0299 -0.9728,-1.3478 -1.4629,-3.3701 -1.4782,-6.0585 l 0,-17.7848 -6.9854,0 z m 35.6471,30.9742 6.9854,0 0,-12.454 11.1214,0 0,-5.6985 -11.1214,0 0,-7.0773 11.9026,0 0,-5.7444 -18.888,0 0,30.9742 z m 53.3862,-17.693 -11.535,0 0,5.4688 4.7795,0 0,6.4798 c -0.2834,0.1224 -0.7276,0.2143 -1.3175,0.2911 -0.5973,0.077 -1.2943,0.1224 -2.0832,0.1224 -1.44,0 -2.7573,-0.2299 -3.9523,-0.674 -1.1949,-0.4519 -2.2289,-1.1107 -3.0943,-1.9761 -0.8731,-0.8654 -1.5472,-1.9224 -2.022,-3.1785 -0.4751,-1.2486 -0.7123,-2.6733 -0.72,-4.2817 0.01,-1.6849 0.2679,-3.1555 0.7889,-4.4116 0.5131,-1.2639 1.2407,-2.3133 2.1676,-3.1481 0.9343,-0.8348 2.022,-1.463 3.2704,-1.8842 1.241,-0.4136 2.6042,-0.6202 4.0671,-0.6202 1.1259,0 2.1294,0.061 2.9948,0.1684 0.8657,0.1148 1.6393,0.2758 2.3131,0.4748 0.6817,0.1992 1.3022,0.4291 1.8612,0.697 l 1.4706,-5.7061 c -0.5054,-0.222 -1.1795,-0.4366 -2.0143,-0.6588 -0.8348,-0.2143 -1.8,-0.3983 -2.9106,-0.5437 -1.1106,-0.1378 -2.3284,-0.2146 -3.6689,-0.2222 -2.5503,0 -4.9019,0.36 -7.0387,1.08 -2.1447,0.72 -4.0135,1.7694 -5.599,3.1558 -1.5857,1.3861 -2.8187,3.079 -3.6995,5.0856 -0.881,2.0143 -1.3328,4.3121 -1.3558,6.901 0,1.5165 0.1687,2.9641 0.5134,4.3353 0.3367,1.3708 0.8271,2.6424 1.478,3.8143 0.6434,1.1642 1.44,2.2059 2.3745,3.1096 1.4171,1.3558 3.1632,2.3896 5.2467,3.0866 2.0755,0.6971 4.5266,1.0494 7.3451,1.0494 1.3788,-0.01 2.7193,-0.1071 4.0213,-0.2911 1.3022,-0.1837 2.497,-0.4059 3.5847,-0.6741 1.0953,-0.2679 2.0066,-0.5284 2.7342,-0.7812 l 0,-16.2683 z"
           style="fill:#000000;fill-rule:evenodd"
           id="path4940" />
      </g>
    </g>
  </g>
</svg>
