<?xml version="1.0" encoding="UTF-8" standalone="no"?>
<svg
   xmlns:dc="http://purl.org/dc/elements/1.1/"
   xmlns:cc="http://creativecommons.org/ns#"
   xmlns:rdf="http://www.w3.org/1999/02/22-rdf-syntax-ns#"
   xmlns:svg="http://www.w3.org/2000/svg"
   xmlns="http://www.w3.org/2000/svg"
   version="1.1"
   id="svg3766"
   viewBox="0 0 347.59 71.662004"
   height="71.662003"
   width="347.59">
  <defs
     id="defs3768" />
  <metadata
     id="metadata3771">
    <rdf:RDF>
      <cc:Work
         rdf:about="">
        <dc:format>image/svg+xml</dc:format>
        <dc:type
           rdf:resource="http://purl.org/dc/dcmitype/StillImage" />
        <dc:title></dc:title>
      </cc:Work>
    </rdf:RDF>
  </metadata>
  <g
     transform="translate(0,-980.70016)"
     id="layer1">
    <path
       id="path3735"
       transform="translate(0,980.70016)"
       d="M 229.33789 0.001953125 C 229.29919 -0.060746875 225.85818 2.0083169 224.09375 3.1542969 C 221.08445 5.1088069 218.04783 7.2857625 215.00391 9.6640625 L 221.57812 9.6640625 C 223.50124 7.7234725 225.46033 5.80177 227.48438 3.90625 C 229.00181 2.48517 230.22698 1.269025 230.20508 1.203125 C 230.18318 1.137225 229.98471 0.84758687 229.76367 0.56054688 C 229.54262 0.27350687 229.35039 0.022143125 229.33789 0.001953125 z M 201.44141 21.5625 C 192.51115 30.2345 183.71272 40.442722 175.47266 51.794922 L 174.60547 52.990234 L 174.19336 52.740234 C 173.96621 52.602934 169.51316 50.081819 164.29883 47.136719 L 154.81836 41.78125 L 154.32422 42.341797 C 154.05286 42.649597 153.84368 42.962409 153.85938 43.037109 C 153.87508 43.112109 159.31657 49.475988 165.95117 57.179688 C 177.64904 70.762487 178.02733 71.185353 178.46289 71.189453 L 178.91211 71.199219 L 180.54688 67.958984 C 187.09171 54.985384 193.92329 43.621844 201.45898 33.277344 L 201.45898 21.753906 C 201.45898 21.673906 201.44901 21.623606 201.44141 21.566406 L 201.44141 21.5625 z "
       style="font-style:normal;font-variant:normal;font-weight:normal;font-stretch:normal;font-size:medium;line-height:125%;font-family:'Gentium Book Basic';-inkscape-font-specification:'Gentium Book Basic';letter-spacing:0px;word-spacing:0px;fill:#ffcc00;fill-opacity:1;stroke:none" />
    <path
       id="path3731"
       transform="translate(0,980.70016)"
       d="M 197.57422 13.664062 L 197.57422 16.505859 C 198.29468 16.559259 199.14747 16.666072 200.13477 16.826172 C 201.14876 16.959592 202.16375 17.199975 203.17773 17.546875 C 204.16504 17.920445 204.79176 18.481366 205.05859 19.228516 C 205.32543 19.975666 205.45898 20.8161 205.45898 21.75 L 205.45898 62.736328 C 205.45898 63.777028 205.27201 64.629775 204.89844 65.296875 C 204.55155 65.963975 203.97825 66.471459 203.17773 66.818359 C 202.69743 67.031759 201.84269 67.206344 200.61523 67.339844 C 199.41446 67.473244 198.49393 67.565841 197.85352 67.619141 L 197.85352 70.460938 L 222.22852 70.460938 L 222.22852 67.619141 C 221.21454 67.592141 220.09465 67.499944 218.86719 67.339844 C 217.66641 67.179744 216.82601 67.005159 216.3457 66.818359 C 215.38508 66.444759 214.74403 65.910597 214.42383 65.216797 C 214.13031 64.496297 213.98437 63.670328 213.98438 62.736328 L 213.98438 45.525391 L 220.34766 45.525391 C 223.06941 45.525391 225.64404 45.178175 228.07227 44.484375 C 230.5005 43.790575 232.72984 42.697425 234.75781 41.203125 C 236.81247 39.708825 238.41317 37.826694 239.56055 35.558594 C 240.73466 33.263794 241.32227 30.635728 241.32227 27.673828 C 241.32227 23.431028 239.66818 20.042773 236.35938 17.507812 C 233.07727 14.946172 228.79317 13.664062 223.50977 13.664062 L 197.57422 13.664062 z M 247.32617 13.664062 L 247.32617 16.505859 C 248.04664 16.559259 249.00626 16.719488 250.20703 16.986328 C 251.43449 17.253168 252.40845 17.561333 253.12891 17.908203 C 254.06285 18.335153 254.67717 18.894131 254.9707 19.587891 C 255.26422 20.254991 255.41016 21.029556 255.41016 21.910156 L 255.41016 62.736328 C 255.41016 63.723628 255.23753 64.537334 254.89062 65.177734 C 254.57043 65.818234 253.9828 66.337981 253.12891 66.738281 C 252.72865 66.925081 251.86153 67.112028 250.52734 67.298828 C 249.19315 67.459028 248.12669 67.565841 247.32617 67.619141 L 247.32617 70.460938 L 294.47656 70.460938 L 295.55664 53.730469 L 292.67383 53.730469 C 292.30025 54.957869 291.43315 56.879141 290.07227 59.494141 C 288.73809 62.082541 287.45793 64.016075 286.23047 65.296875 C 285.77684 65.777175 285.00223 66.165484 283.9082 66.458984 C 282.84085 66.725784 281.80109 66.912831 280.78711 67.019531 C 279.7998 67.126331 278.58546 67.179688 277.14453 67.179688 L 273.66211 67.179688 C 271.44735 67.179688 269.73983 67.111716 268.53906 66.978516 C 267.33829 66.818416 266.39105 66.485516 265.69727 65.978516 C 265.00349 65.471516 264.53704 64.723628 264.29688 63.736328 C 264.05672 62.749028 263.93556 61.401059 263.93555 59.693359 L 263.93555 42.642578 L 270.33984 42.642578 C 272.0743 42.642578 273.46325 42.802847 274.50391 43.123047 C 275.57127 43.443247 276.5185 44.123362 277.3457 45.164062 C 277.85269 45.804462 278.33154 46.846209 278.78516 48.287109 C 279.26547 49.701409 279.55929 51.049278 279.66602 52.330078 L 282.66797 52.330078 L 282.66797 30.115234 L 279.66602 30.115234 C 279.53261 31.262634 279.25312 32.489375 278.82617 33.796875 C 278.42592 35.077675 277.93275 36.105106 277.3457 36.878906 C 276.62523 37.786206 275.78289 38.439544 274.82227 38.839844 C 273.88834 39.213344 272.3945 39.400391 270.33984 39.400391 L 263.93555 39.400391 L 263.93555 16.826172 L 272.86133 16.826172 C 274.32894 16.826172 275.63776 16.85285 276.78516 16.90625 C 277.93257 16.95965 278.91889 17.039744 279.74609 17.146484 C 281.34712 17.359954 283.02793 18.615356 284.78906 20.910156 C 286.57688 23.178256 287.73781 25.325516 288.27148 27.353516 L 291.27344 27.353516 L 291.27344 13.664062 L 247.32617 13.664062 z M 298.11914 13.664062 L 298.11914 29.074219 L 300.91992 29.074219 C 301.16007 28.193619 301.58744 27.086153 302.20117 25.751953 C 302.8149 24.391053 303.52176 23.110956 304.32227 21.910156 C 305.12279 20.709356 305.98989 19.640971 306.92383 18.707031 C 307.88444 17.746411 308.805 17.214162 309.68555 17.107422 C 310.80628 16.973982 311.97958 16.893857 313.20703 16.867188 C 314.43449 16.813787 315.46186 16.787109 316.28906 16.787109 L 318.61133 16.787109 L 318.61133 62.576172 C 318.61133 63.670172 318.39764 64.549697 317.9707 65.216797 C 317.57044 65.857197 316.92939 66.352319 316.04883 66.699219 C 315.46178 66.939419 314.39532 67.138728 312.84766 67.298828 C 311.32668 67.458928 310.19246 67.565841 309.44531 67.619141 L 309.44531 70.460938 L 336.26367 70.460938 L 336.26367 67.619141 C 335.40979 67.592141 334.20783 67.419809 332.66016 67.099609 C 331.13919 66.779409 330.13851 66.524691 329.6582 66.337891 C 328.72427 65.937591 328.07085 65.378703 327.69727 64.658203 C 327.3237 63.911003 327.13672 63.095444 327.13672 62.214844 L 327.13672 16.787109 L 329.45898 16.787109 C 330.52634 16.787109 331.68727 16.813787 332.94141 16.867188 C 334.19556 16.920588 335.2353 17.000682 336.0625 17.107422 C 336.94306 17.240842 337.85122 17.773091 338.78516 18.707031 C 339.74578 19.614271 340.62526 20.682656 341.42578 21.910156 C 342.19961 23.084256 342.89408 24.337675 343.50781 25.671875 C 344.14822 26.979375 344.58797 28.113519 344.82812 29.074219 L 347.58984 29.074219 L 347.58984 13.664062 L 298.11914 13.664062 z M 213.98438 16.947266 L 219.62695 16.947266 C 221.89508 16.947266 223.78958 17.294501 225.31055 17.988281 C 226.83154 18.682061 228.06021 19.656056 228.99414 20.910156 C 229.87471 22.084256 230.48709 23.45685 230.83398 25.03125 C 231.20756 26.60555 231.39453 28.154781 231.39453 29.675781 C 231.39453 30.769881 231.2486 32.008984 230.95508 33.396484 C 230.66155 34.757384 230.06154 36.078575 229.1543 37.359375 C 228.24703 38.693575 226.88481 39.815356 225.07031 40.722656 C 223.28249 41.603156 220.94827 42.042969 218.06641 42.042969 L 213.98438 42.042969 L 213.98438 16.947266 z "
       style="font-style:normal;font-variant:normal;font-weight:normal;font-stretch:normal;font-size:medium;line-height:125%;font-family:'Gentium Book Basic';-inkscape-font-specification:'Gentium Book Basic';letter-spacing:0px;word-spacing:0px;fill:#000080;fill-opacity:1;stroke:none" />
    <path
       id="path3727"
       transform="translate(0,980.70016)"
       d="M 155.69922 15.986328 C 154.97876 15.986328 154.29861 16.132261 153.6582 16.425781 C 153.01779 16.692621 152.45883 17.080911 151.97852 17.587891 C 151.49821 18.094891 151.10993 18.694892 150.81641 19.388672 C 150.54957 20.082472 150.41602 20.828406 150.41602 21.628906 C 150.41602 22.963106 150.76325 23.978075 151.45703 24.671875 C 152.1775 25.338975 153.17816 25.671875 154.45898 25.671875 C 155.20613 25.671875 155.90061 25.525922 156.54102 25.232422 C 157.20812 24.938822 157.78141 24.53825 158.26172 24.03125 C 158.74203 23.52425 159.11597 22.924269 159.38281 22.230469 C 159.67633 21.536669 159.82227 20.788781 159.82227 19.988281 C 159.82227 18.627421 159.44832 17.626738 158.70117 16.986328 C 157.95402 16.319228 156.95336 15.986328 155.69922 15.986328 z M 24.65625 18.828125 C 21.2674 18.828125 18.078444 19.495878 15.089844 20.830078 C 12.101254 22.164278 9.4855806 24.058772 7.2441406 26.513672 C 5.0027007 28.968572 3.229395 31.929638 1.921875 35.398438 C 0.64105502 38.867337 0 42.736459 0 47.005859 C 0 50.874959 0.58762877 54.343509 1.7617188 57.412109 C 2.9357988 60.454109 4.4830569 63.028719 6.4042969 65.136719 C 8.3255268 67.244719 10.51383 68.859769 12.96875 69.980469 C 15.42367 71.101169 17.918165 71.662109 20.453125 71.662109 C 21.894055 71.662109 23.334461 71.487525 24.775391 71.140625 C 26.243001 70.820425 27.736832 70.288216 29.257812 69.541016 C 30.778793 68.767216 32.328004 67.766462 33.902344 66.539062 C 35.503384 65.311563 37.157474 63.803425 38.865234 62.015625 C 38.785234 61.935625 38.678342 61.802034 38.544922 61.615234 C 38.411502 61.401834 38.263616 61.188109 38.103516 60.974609 C 37.943416 60.734509 37.7851 60.520784 37.625 60.333984 C 37.46489 60.120484 37.317014 59.974631 37.183594 59.894531 C 35.742674 61.095331 34.355684 62.108347 33.021484 62.935547 C 31.713984 63.736047 30.485301 64.391537 29.337891 64.898438 C 28.190491 65.378837 27.136401 65.724 26.175781 65.9375 C 25.215161 66.151 24.374757 66.257812 23.654297 66.257812 C 21.813117 66.257812 19.932959 65.844778 18.011719 65.017578 C 16.090479 64.163678 14.356264 62.883481 12.808594 61.175781 C 11.260934 59.441281 9.9931594 57.279706 9.0058594 54.691406 C 8.0185594 52.076406 7.5253906 49.020991 7.5253906 45.525391 C 7.5253906 42.750291 7.7390756 40.282494 8.1660156 38.121094 C 8.6196456 35.959694 9.2053113 34.0653 9.9257812 32.4375 C 10.646242 30.8098 11.486646 29.435153 12.447266 28.314453 C 13.407886 27.167053 14.396176 26.246534 15.410156 25.552734 C 16.450826 24.832234 17.49057 24.310434 18.53125 23.990234 C 19.5986 23.670034 20.586891 23.511719 21.494141 23.511719 C 23.815641 23.511719 25.882766 23.963894 27.697266 24.871094 C 29.538456 25.751694 31.13912 26.99275 32.5 28.59375 L 34.302734 28.955078 C 34.622944 28.634878 35.021643 28.166434 35.501953 27.552734 C 35.982263 26.912334 36.436341 26.273312 36.863281 25.632812 C 37.316911 24.965812 37.676519 24.365631 37.943359 23.832031 C 38.210199 23.298331 38.263616 22.963478 38.103516 22.830078 C 37.409736 22.269778 36.583677 21.749831 35.623047 21.269531 C 34.689117 20.789231 33.6474 20.376197 32.5 20.029297 C 31.35259 19.655797 30.113487 19.361867 28.779297 19.148438 C 27.471787 18.934967 26.09717 18.828125 24.65625 18.828125 z M 126.60156 19.107422 L 120.7168 23.871094 L 120.7168 33.236328 L 117.83594 33.236328 L 114.71289 36.199219 L 115.67383 37.439453 L 120.7168 37.439453 L 120.7168 61.294922 C 120.7168 63.162822 120.9181 64.751094 121.31836 66.058594 C 121.71862 67.366094 122.25283 68.432566 122.91992 69.259766 C 123.6137 70.086966 124.41306 70.686947 125.32031 71.060547 C 126.22756 71.460747 127.17481 71.662109 128.16211 71.662109 C 129.57635 71.662109 131.49755 71.142163 133.92578 70.101562 C 136.35401 69.034163 139.03547 67.419213 141.9707 65.257812 L 140.60938 62.935547 C 138.47467 64.029547 136.72806 64.777534 135.36719 65.177734 C 134.00631 65.551334 132.85776 65.738281 131.92383 65.738281 C 131.23005 65.738281 130.63005 65.617053 130.12305 65.376953 C 129.61606 65.110053 129.20302 64.670441 128.88281 64.056641 C 128.5626 63.416241 128.32221 62.590172 128.16211 61.576172 C 128.002 60.562172 127.92187 59.294437 127.92188 57.773438 L 127.92188 37.439453 L 130.20312 37.439453 C 132.12437 37.439453 133.72503 37.599722 135.00586 37.919922 C 136.31336 38.213522 137.28732 38.519544 137.92773 38.839844 C 138.19457 38.679644 138.50271 38.441294 138.84961 38.121094 C 139.22318 37.800894 139.59713 37.439263 139.9707 37.039062 C 140.34427 36.638762 140.70389 36.211412 141.05078 35.757812 C 141.42435 35.304212 141.73055 34.878716 141.9707 34.478516 L 140.73047 33.236328 L 127.92188 33.236328 L 127.92188 20.228516 L 126.60156 19.107422 z M 63.201172 32.037109 C 62.400662 32.037109 61.560248 32.129106 60.679688 32.316406 C 59.799118 32.503206 58.932015 32.755972 58.078125 33.076172 C 57.250925 33.369672 56.449611 33.716987 55.675781 34.117188 C 54.901951 34.517488 54.195098 34.944837 53.554688 35.398438 C 52.167127 36.359137 50.938454 37.478866 49.871094 38.759766 C 48.803744 40.040566 47.897541 41.429528 47.150391 42.923828 C 46.429921 44.418128 45.869 46.018762 45.46875 47.726562 C 45.09517 49.434262 44.908203 51.182903 44.908203 52.970703 C 44.908203 55.799203 45.335573 58.359497 46.189453 60.654297 C 47.043333 62.949097 48.189919 64.911362 49.630859 66.539062 C 51.071779 68.166763 52.740216 69.434597 54.634766 70.341797 C 56.556006 71.222397 58.58404 71.662109 60.71875 71.662109 C 62.15968 71.662109 63.480871 71.555297 64.681641 71.341797 C 65.909101 71.128297 67.135821 70.700947 68.363281 70.060547 C 69.617421 69.393447 70.938612 68.472928 72.326172 67.298828 C 73.713732 66.124728 75.314406 64.57745 77.128906 62.65625 C 76.995486 62.44275 76.769419 62.10985 76.449219 61.65625 C 76.129009 61.20255 75.796099 60.882112 75.449219 60.695312 C 73.928239 61.869412 72.607048 62.802294 71.486328 63.496094 C 70.365598 64.189894 69.350599 64.724056 68.443359 65.097656 C 67.536099 65.444556 66.683323 65.670544 65.882812 65.777344 C 65.108982 65.884044 64.307669 65.9375 63.480469 65.9375 C 61.746019 65.9375 60.184435 65.551144 58.796875 64.777344 C 57.435995 63.976744 56.277026 62.910372 55.316406 61.576172 C 54.355786 60.241972 53.607899 58.680378 53.074219 56.892578 C 52.540519 55.078078 52.261045 53.156906 52.234375 51.128906 L 72.566406 51.128906 C 73.420296 50.782006 74.314117 50.354656 75.248047 49.847656 C 76.181987 49.313956 76.888831 48.779794 77.369141 48.246094 C 77.369141 47.018594 77.262288 45.765175 77.048828 44.484375 C 76.835348 43.203575 76.488123 41.962519 76.007812 40.761719 C 75.554182 39.561019 74.954181 38.426675 74.207031 37.359375 C 73.486561 36.291975 72.592741 35.371456 71.525391 34.597656 C 70.484721 33.797156 69.270372 33.170497 67.882812 32.716797 C 66.495253 32.263197 64.935622 32.037109 63.201172 32.037109 z M 93.060547 32.037109 C 92.260037 32.410709 91.444387 32.743609 90.617188 33.037109 C 89.816667 33.304009 88.990599 33.556775 88.136719 33.796875 C 87.282839 34.037075 86.389008 34.265016 85.455078 34.478516 C 84.521138 34.691916 83.520485 34.905741 82.453125 35.119141 L 82.453125 37.119141 C 83.200275 37.172141 83.814612 37.225897 84.294922 37.279297 C 84.801912 37.306297 85.227329 37.359253 85.574219 37.439453 C 85.921109 37.519453 86.202546 37.626366 86.416016 37.759766 C 86.629486 37.866466 86.828845 38.014372 87.015625 38.201172 C 87.122365 38.334572 87.229197 38.507203 87.335938 38.720703 C 87.469358 38.934203 87.5762 39.227962 87.65625 39.601562 C 87.73635 39.975063 87.802129 40.468331 87.855469 41.082031 C 87.908869 41.669131 87.935547 42.402703 87.935547 43.283203 L 87.935547 65.898438 C 87.935557 66.352138 87.456714 66.779387 86.496094 67.179688 C 85.562164 67.553287 84.214265 67.939544 82.453125 68.339844 L 82.453125 70.460938 L 102.02539 70.460938 L 102.02539 68.339844 C 99.517101 67.966244 97.741842 67.565572 96.701172 67.138672 C 95.660499 66.711672 95.140625 66.298738 95.140625 65.898438 L 95.140625 49.607422 C 95.834405 47.499422 96.567954 45.726056 97.341797 44.285156 C 98.142307 42.844156 98.943621 41.683334 99.744141 40.802734 C 100.54465 39.895534 101.30492 39.240044 102.02539 38.839844 C 102.77254 38.439544 103.42597 38.240234 103.98633 38.240234 C 105.10705 38.240234 106.05429 38.774497 106.82812 39.841797 C 107.60196 40.909197 108.13616 42.522194 108.42969 44.683594 L 110.55078 44.683594 C 110.87099 43.963094 111.20389 43.015897 111.55078 41.841797 C 111.89767 40.640997 112.1791 39.45525 112.39258 38.28125 C 112.6327 37.10715 112.77863 36.079819 112.83203 35.199219 C 112.88543 34.292019 112.79293 33.757756 112.55273 33.597656 C 111.56543 33.037256 110.56477 32.636684 109.55078 32.396484 C 108.53679 32.156384 107.56285 32.037109 106.62891 32.037109 C 105.48151 32.037109 104.35967 32.289875 103.26562 32.796875 C 102.19827 33.277175 101.17089 33.945028 100.18359 34.798828 C 99.222974 35.652728 98.302445 36.653381 97.421875 37.800781 C 96.567992 38.948181 95.781037 40.189337 95.060547 41.523438 L 94.541016 33.517578 L 93.060547 32.037109 z M 156.74023 32.037109 C 155.21926 32.704209 153.48503 33.304191 151.53711 33.837891 C 149.61587 34.371591 147.709 34.798941 145.81445 35.119141 L 145.81445 37.119141 C 147.2287 37.252641 148.30949 37.427225 149.05664 37.640625 C 149.80379 37.854125 150.33604 38.199388 150.65625 38.679688 C 150.84573 38.927487 150.98218 39.241675 151.07617 39.609375 C 151.09767 39.584375 151.11472 39.55625 151.13672 39.53125 L 153.9082 36.386719 L 158.50195 38.980469 L 158.50195 32.037109 L 156.74023 32.037109 z M 61.958984 36.439453 C 63.586704 36.439453 64.907895 36.786669 65.921875 37.480469 C 66.935865 38.174269 67.722843 39.014553 68.283203 40.001953 C 68.870253 40.989253 69.270905 42.016584 69.484375 43.083984 C 69.697845 44.151284 69.804688 45.057487 69.804688 45.804688 C 69.804688 46.365088 69.697845 46.753297 69.484375 46.966797 C 69.297595 47.153597 68.896933 47.246094 68.283203 47.246094 L 52.433594 47.246094 C 52.647074 45.645094 53.006682 44.17795 53.513672 42.84375 C 54.047342 41.50955 54.715115 40.375406 55.515625 39.441406 C 56.316145 38.480806 57.249056 37.747234 58.316406 37.240234 C 59.410446 36.706634 60.624794 36.439453 61.958984 36.439453 z M 151.29688 46.605469 L 151.29688 65.898438 C 151.29688 66.272037 150.83042 66.685072 149.89648 67.138672 C 148.98923 67.565572 147.62895 67.966244 145.81445 68.339844 L 145.81445 70.460938 L 164.02539 70.460938 L 164.02539 68.339844 C 162.07747 67.966244 160.66377 67.553209 159.7832 67.099609 C 158.92932 66.619309 158.50195 66.218637 158.50195 65.898438 L 158.50195 55.027344 C 156.99692 53.275444 155.30185 51.306266 154.19336 50.009766 C 153.09507 48.725166 152.2043 47.678706 151.58008 46.941406 C 151.45987 46.799406 151.39699 46.724269 151.29688 46.605469 z "
       style="font-style:normal;font-variant:normal;font-weight:normal;font-stretch:normal;font-size:medium;line-height:125%;font-family:'Gentium Book Basic';-inkscape-font-specification:'Gentium Book Basic';letter-spacing:0px;word-spacing:0px;fill:#000080;fill-opacity:1;stroke:none" />
  </g>
</svg>
