<?xml version="1.0" encoding="UTF-8" standalone="no"?>
<svg
   xmlns:dc="http://purl.org/dc/elements/1.1/"
   xmlns:cc="http://creativecommons.org/ns#"
   xmlns:rdf="http://www.w3.org/1999/02/22-rdf-syntax-ns#"
   xmlns:svg="http://www.w3.org/2000/svg"
   xmlns="http://www.w3.org/2000/svg"
   version="1.1"
   id="svg9154"
   viewBox="0 0 156.10298 106.31252"
   height="30.003756mm"
   width="44.055729mm">
  <defs
     id="defs9156" />
  <metadata
     id="metadata9159">
    <rdf:RDF>
      <cc:Work
         rdf:about="">
        <dc:format>image/svg+xml</dc:format>
        <dc:type
           rdf:resource="http://purl.org/dc/dcmitype/StillImage" />
        <dc:title></dc:title>
      </cc:Work>
    </rdf:RDF>
  </metadata>
  <g
     transform="translate(-16.234224,-927.77738)"
     id="layer1">
    <path
       id="path3827-7-8"
       d="m 135.81751,960.27588 c -3.77094,-4.3785 -6.86353,-7.9957 -6.87244,-8.0381 -0.009,-0.043 0.10999,-0.2204 0.26422,-0.3953 l 0.28044,-0.318 5.38851,3.0435 c 2.96369,1.6738 5.49416,3.1072 5.62328,3.1852 l 0.23472,0.142 0.493,-0.6791 c 8.63773,-11.9001 18.35009,-21.6169 27.63416,-27.6469 1.00287,-0.6515 2.95922,-1.8268 2.98123,-1.791 0.007,0.012 0.1157,0.1542 0.24134,0.3174 0.12563,0.1631 0.23863,0.3274 0.25107,0.3646 0.0125,0.037 -0.683,0.7291 -1.54548,1.5369 -10.90345,10.2109 -19.1233,21.4272 -26.67861,36.4038 l -0.92865,1.8408 -0.25527,0 c -0.24756,0 -0.46277,-0.2432 -7.11152,-7.9633 z"
       style="fill:#000000;stroke:none;stroke-width:10;stroke-miterlimit:4;stroke-dasharray:none" />
    <path
       d="m 116.43984,968.18528 0,-1.3866 q 1.77902,-0.3662 2.66851,-0.7848 0.91568,-0.4447 0.91568,-0.8109 l 0,-14.363 q 0,-1.3342 -0.0523,-2.1453 -0.0261,-0.8371 -0.36626,-1.2818 -0.31395,-0.471 -1.04649,-0.6804 -0.73252,-0.2092 -2.11911,-0.34 l 0,-1.3081 q 1.8575,-0.3139 3.74116,-0.8372 1.90981,-0.5232 3.40104,-1.1773 l 1.15114,0 0,22.1331 q 0,0.3137 0.83718,0.7848 0.86333,0.4447 2.77314,0.8109 l 0,1.3866 -11.90366,0 z m 9.15667,-32.9901 q 0,0.7847 -0.28778,1.4651 -0.26162,0.6801 -0.73255,1.1772 -0.4709,0.4972 -1.12494,0.7848 -0.6279,0.2878 -1.36042,0.2878 -1.25578,0 -1.96215,-0.6539 -0.68021,-0.6804 -0.68021,-1.9885 0,-0.7847 0.26162,-1.4649 0.28778,-0.6803 0.75869,-1.1773 0.47092,-0.4971 1.09881,-0.7587 0.62788,-0.2878 1.33425,-0.2878 1.22962,0 1.96215,0.654 0.73253,0.628 0.73253,1.9622 z"
       style="font-style:normal;font-variant:normal;font-weight:normal;font-stretch:normal;font-size:medium;line-height:125%;font-family:'Gentium Book Basic';-inkscape-font-specification:'Gentium Book Basic';letter-spacing:0px;word-spacing:0px;fill:#000000;fill-opacity:1;stroke:none;stroke-width:1.5;stroke-miterlimit:4;stroke-dasharray:none"
       id="path3817-1-0" />
    <path
       d="m 46.535254,962.66518 q -1.67437,1.7527 -3.24408,2.9563 -1.54356,1.2033 -3.03478,1.9622 -1.49123,0.7325 -2.93013,1.0465 -1.41275,0.34 -2.82549,0.34 -2.48538,0 -4.89228,-1.0989 -2.4069,-1.0987 -4.29055,-3.1654 -1.88366,-2.0668 -3.03478,-5.0493 -1.15112,-3.0085 -1.15112,-6.8019 0,-4.1862 1.25577,-7.5872 1.28194,-3.401 3.47953,-5.8079 2.1976,-2.4069 5.12773,-3.7149 2.93014,-1.3082 6.2527,-1.3082 1.41274,0 2.69467,0.2093 1.3081,0.2092 2.43306,0.5755 1.12496,0.3401 2.04063,0.8111 0.94183,0.4709 1.62204,1.0203 0.15697,0.1308 -0.10465,0.654 -0.26162,0.5232 -0.70637,1.1773 -0.41859,0.6279 -0.88951,1.2558 -0.47091,0.6017 -0.78485,0.9157 l -1.17729,-0.2355 q -1.33425,-1.5697 -3.13943,-2.433 -1.779,-0.8896 -4.05509,-0.8896 -0.8895,0 -1.93598,0.3139 -1.02032,0.3142 -2.04063,1.0204 -0.99415,0.6802 -1.93598,1.805 -0.94183,1.099 -1.6482,2.6948 -0.70637,1.5959 -1.15113,3.7149 -0.41859,2.1193 -0.41859,4.8401 0,3.4272 0.96799,5.991 0.968,2.5377 2.48538,4.2383 1.5174,1.6743 3.40105,2.5116 1.88366,0.811 3.68883,0.811 0.70637,0 1.6482,-0.2093 0.94183,-0.2093 2.06679,-0.6803 1.12496,-0.497 2.40689,-1.2818 1.3081,-0.8111 2.72084,-1.9884 0.13081,0.079 0.28779,0.2878 0.15696,0.1831 0.31394,0.4187 0.15697,0.2093 0.28778,0.4185 0.13081,0.1832 0.2093,0.2616 z"
       style="font-style:normal;font-variant:normal;font-weight:normal;font-stretch:normal;font-size:medium;line-height:125%;font-family:'Gentium Book Basic';-inkscape-font-specification:'Gentium Book Basic';letter-spacing:0px;word-spacing:0px;fill:#000000;fill-opacity:1;stroke:none;stroke-width:1.5;stroke-miterlimit:4;stroke-dasharray:none"
       id="path3819-4-5" />
    <path
       d="m 61.630664,945.94768 q -1.3081,0 -2.38073,0.5233 -1.04648,0.4971 -1.83134,1.439 -0.78485,0.9155 -1.30809,2.2238 -0.49707,1.308 -0.70637,2.8776 l 10.36011,0 q 0.60173,0 0.78486,-0.183 0.20929,-0.2094 0.20929,-0.7589 0,-0.7325 -0.20929,-1.7788 -0.2093,-1.0466 -0.78486,-2.0146 -0.5494,-0.9679 -1.54355,-1.6483 -0.99416,-0.6801 -2.59003,-0.6801 z m 10.07233,7.7178 q -0.47091,0.5233 -1.38658,1.0464 -0.91566,0.4971 -1.75285,0.8373 l -13.29024,0 q 0.0262,1.9883 0.5494,3.7673 0.52324,1.7528 1.46507,3.0609 0.94182,1.3081 2.27608,2.0929 1.36042,0.7588 3.06094,0.7588 0.81102,0 1.56972,-0.1047 0.78485,-0.1046 1.67436,-0.4446 0.8895,-0.3664 1.98831,-1.0466 1.09879,-0.6802 2.59002,-1.8314 0.3401,0.1833 0.65405,0.6279 0.31394,0.4446 0.44475,0.6541 -1.77901,1.8837 -3.13943,3.0347 -1.36041,1.1512 -2.59002,1.8053 -1.20345,0.6278 -2.4069,0.8372 -1.17728,0.2092 -2.59003,0.2092 -2.09295,0 -3.97661,-0.8633 -1.85749,-0.8897 -3.27023,-2.4854 -1.41275,-1.5959 -2.24993,-3.8459 -0.83718,-2.25 -0.83718,-5.023 0,-1.7529 0.36627,-3.4272 0.39242,-1.6744 1.0988,-3.1394 0.73253,-1.4652 1.779,-2.7207 1.04648,-1.2559 2.4069,-2.1978 0.62789,-0.4447 1.38659,-0.8371 0.75869,-0.3924 1.5697,-0.6803 0.83719,-0.3139 1.70053,-0.4971 0.86334,-0.1831 1.6482,-0.1831 1.70053,0 3.06094,0.4449 1.36042,0.4446 2.38073,1.2296 1.04648,0.7586 1.75285,1.805 0.73254,1.0466 1.17729,2.2238 0.47091,1.1774 0.68021,2.4331 0.20929,1.2557 0.20929,2.4592 z"
       style="font-style:normal;font-variant:normal;font-weight:normal;font-stretch:normal;font-size:medium;line-height:125%;font-family:'Gentium Book Basic';-inkscape-font-specification:'Gentium Book Basic';letter-spacing:0px;word-spacing:0px;fill:#000000;fill-opacity:1;stroke:none;stroke-width:1.5;stroke-miterlimit:4;stroke-dasharray:none"
       id="path3821-9-1" />
    <path
       d="m 94.699304,944.09028 q 0.23546,0.1569 0.18314,1.0465 -0.0523,0.8632 -0.28778,2.0144 -0.20931,1.151 -0.54941,2.3284 -0.34009,1.1512 -0.65404,1.8574 l -1.38658,0 q -0.28779,-2.119 -1.04648,-3.1656 -0.75869,-1.0463 -1.85748,-1.0463 -0.54941,0 -1.28194,0.3924 -0.70638,0.3925 -1.49123,1.2819 -0.78486,0.8632 -1.56971,2.276 -0.7587,1.4128 -1.43892,3.4797 l 0,10.6479 q 0,0.3924 1.02032,0.8109 1.02033,0.4186 3.47954,0.7848 l 0,1.3866 -12.79317,0 0,-1.3866 q 1.72668,-0.3923 2.64234,-0.7587 0.94184,-0.3923 0.94184,-0.837 l 0,-14.7815 q 0,-0.8634 -0.0523,-1.4391 -0.0523,-0.6015 -0.13081,-0.9679 -0.0785,-0.3663 -0.20929,-0.5754 -0.10465,-0.2094 -0.2093,-0.3401 -0.18313,-0.1832 -0.39242,-0.2879 -0.20931,-0.1309 -0.54941,-0.2094 -0.3401,-0.079 -0.83718,-0.1045 -0.47091,-0.053 -1.20344,-0.1047 l 0,-1.3081 q 1.04648,-0.2093 1.96214,-0.4186 0.91566,-0.2092 1.75285,-0.4447 0.83718,-0.2355 1.62204,-0.4971 0.81101,-0.2878 1.59586,-0.6541 l 0.968,0.9681 0.3401,5.2322 q 0.70637,-1.308 1.54356,-2.4329 0.86334,-1.125 1.80517,-1.9622 0.96799,-0.8371 2.01446,-1.3081 1.07265,-0.4971 2.19761,-0.4971 0.91567,0 1.90981,0.2354 0.99415,0.2356 1.96214,0.785 z"
       style="font-style:normal;font-variant:normal;font-weight:normal;font-stretch:normal;font-size:medium;line-height:125%;font-family:'Gentium Book Basic';-inkscape-font-specification:'Gentium Book Basic';letter-spacing:0px;word-spacing:0px;fill:#000000;fill-opacity:1;stroke:none;stroke-width:1.5;stroke-miterlimit:4;stroke-dasharray:none"
       id="path3823-8-4" />
    <path
       d="m 113.92829,964.78428 q -2.8778,2.1192 -5.25852,3.1656 -2.38074,1.0203 -3.76732,1.0203 -0.96799,0 -1.85749,-0.3925 -0.88952,-0.3662 -1.56973,-1.1772 -0.65404,-0.811 -1.04646,-2.0929 -0.39245,-1.282 -0.39245,-3.1132 l 0,-15.5927 -3.296386,0 -0.62788,-0.8109 2.04062,-1.936 1.883646,0 0,-6.1218 3.84581,-3.1135 0.86333,0.7327 0,8.5026 8.37183,0 0.811,0.811 q -0.23545,0.3925 -0.60171,0.8372 -0.3401,0.4447 -0.70637,0.8371 -0.36626,0.3924 -0.73254,0.7063 -0.3401,0.314 -0.60172,0.4711 -0.62789,-0.314 -1.90981,-0.6017 -1.25577,-0.3141 -3.13944,-0.3141 l -1.49124,0 0,13.2904 q 0,1.4912 0.15699,2.4853 0.15696,0.9942 0.47091,1.622 0.31394,0.6018 0.81101,0.8635 0.49708,0.2354 1.1773,0.2354 0.91565,0 2.24992,-0.3662 1.33425,-0.3925 3.42721,-1.4651 l 0.88949,1.5173 z"
       style="font-style:normal;font-variant:normal;font-weight:normal;font-stretch:normal;font-size:medium;line-height:125%;font-family:'Gentium Book Basic';-inkscape-font-specification:'Gentium Book Basic';letter-spacing:0px;word-spacing:0px;fill:#000000;fill-opacity:1;stroke:none;stroke-width:1.5;stroke-miterlimit:4;stroke-dasharray:none"
       id="path3825-5-6" />
    <path
       id="path3801-4-1"
       style="font-style:normal;font-variant:normal;font-weight:normal;font-stretch:normal;font-size:medium;line-height:125%;font-family:Georgia;-inkscape-font-specification:Georgia;letter-spacing:0px;word-spacing:0px;fill:#000000;fill-opacity:1;stroke:none;stroke-width:1.5;stroke-miterlimit:4;stroke-dasharray:none"
       d="m 114.21728,1017.3591 -1.08069,16.7308 -47.150356,0 0,-2.8418 q 1.20078,-0.08 3.20207,-0.3202 2.00128,-0.2802 2.60167,-0.5604 1.28083,-0.6004 1.76113,-1.561 0.52034,-0.9606 0.52034,-2.4416 l 0,-40.82632 q 0,-1.3208 -0.44028,-2.3215 -0.44029,-1.0406 -1.84119,-1.681 -1.08069,-0.5204 -2.92188,-0.9206 -1.80116,-0.4003 -2.88186,-0.4803 l 0,-2.8419 43.948296,0 0,13.6888 -3.00194,0 q -0.80051,-3.0419 -3.48224,-6.4441 -2.6417,-3.4422 -5.043236,-3.7624 -1.2408,-0.1601 -2.96191,-0.2402 -1.72111,-0.08 -3.92253,-0.08 l -8.92574,0 0,22.57452 6.40412,0 q 3.08199,0 4.48289,-0.5603 1.44092,-0.6004 2.52162,-1.9613 0.88057,-1.16072 1.48095,-3.08202 0.64042,-1.9612 0.84054,-3.6823 l 3.001936,0 0,22.21432 -3.001936,0 q -0.1601,-1.9213 -0.88056,-4.0426 -0.68044,-2.1614 -1.44093,-3.122 -1.2408,-1.5611 -2.84183,-2.0414 -1.561,-0.4803 -4.16268,-0.4803 l -6.40412,0 0,17.051 q 0,2.5617 0.36023,4.0426 0.36023,1.481 1.4009,2.2415 1.04067,0.7604 2.84183,1.0006 1.80116,0.2001 5.1233,0.2001 1.32085,0 3.48224,0 2.16139,0 3.64235,-0.1601 1.520976,-0.1601 3.122006,-0.5603 1.64105,-0.4403 2.32149,-1.1608 1.84119,-1.9212 3.84247,-5.8037 2.04132,-3.9225 2.60168,-5.7637 l 2.88185,0 z" />
    <path
       id="path3803-0-3"
       style="font-style:normal;font-variant:normal;font-weight:normal;font-stretch:normal;font-size:medium;line-height:125%;font-family:Georgia;-inkscape-font-specification:Georgia;letter-spacing:0px;word-spacing:0px;fill:#000000;fill-opacity:1;stroke:none;stroke-width:1.5;stroke-miterlimit:4;stroke-dasharray:none"
       d="m 166.25077,992.70318 -2.76177,0 q -0.36023,-1.4409 -1.32085,-3.4021 -0.9206,-2.0013 -2.08134,-3.7625 -1.20078,-1.8412 -2.6417,-3.202 -1.40091,-1.4009 -2.72176,-1.6011 -1.24079,-0.1601 -3.12201,-0.2401 -1.88121,-0.08 -3.48224,-0.08 l -2.32149,0 0,45.42922 q 0,1.3209 0.56036,2.4416 0.56036,1.0807 1.96126,1.6811 0.72047,0.2802 3.00193,0.7605 2.3215,0.4803 3.60232,0.5203 l 0,2.8418 -26.81726,0 0,-2.8418 q 1.12072,-0.08 3.40219,-0.3202 2.32149,-0.2402 3.20206,-0.6004 1.32085,-0.5203 1.92124,-1.4809 0.64041,-1.0007 0.64041,-2.6417 l 0,-45.78952 -2.32149,0 q -1.2408,0 -3.08199,0.08 -1.84118,0.04 -3.52227,0.2401 -1.32085,0.1601 -2.76177,1.6011 -1.40091,1.4009 -2.60168,3.202 -1.20077,1.8012 -2.12136,3.8425 -0.9206,2.0013 -1.28083,3.3221 l -2.8018,0 0,-15.4099 49.47184,0 0,15.4099 z" />
    <path
       id="path3799-0-8"
       style="font-style:normal;font-variant:normal;font-weight:normal;font-stretch:normal;font-size:medium;line-height:125%;font-family:Georgia;-inkscape-font-specification:Georgia;letter-spacing:0px;word-spacing:0px;fill:#000000;fill-opacity:1;stroke:none;stroke-width:1.5;stroke-miterlimit:4;stroke-dasharray:none"
       d="m 59.982384,991.30228 q 0,4.4429 -1.76114,7.8851 -1.7211,3.40222 -4.80309,5.64372 -3.04196,2.2414 -6.6843,3.2821 -3.64235,1.0406 -7.72497,1.0406 l -6.3641,0 0,17.2111 q 0,1.4009 0.44028,2.4816 0.48031,1.0407 1.92124,1.601 0.72046,0.2802 2.52162,0.5204 1.84119,0.2401 3.36217,0.2802 l 0,2.8418 -24.37569,0 0,-2.8418 q 0.96061,-0.08 2.76177,-0.2802 1.84119,-0.2002 2.56165,-0.5204 1.20078,-0.5203 1.72111,-1.5209 0.56036,-1.0007 0.56036,-2.5617 l 0,-40.98642 q 0,-1.4009 -0.40026,-2.5216 -0.40025,-1.1207 -1.88121,-1.6811 -1.52098,-0.5203 -3.04196,-0.7204 -1.48095,-0.2402 -2.56164,-0.3202 l 0,-2.8419 25.93669,0 q 7.9251,0 12.84827,3.8425 4.9632,3.8024 4.9632,10.1665 z m -12.16783,9.68632 q 1.36087,-1.92132 1.80116,-3.96262 0.44028,-2.0813 0.44028,-3.7224 0,-2.2814 -0.56036,-4.643 -0.52034,-2.3615 -1.84119,-4.1226 -1.4009,-1.8812 -3.68237,-2.9219 -2.28147,-1.0407 -5.68366,-1.0407 l -5.64363,0 0,25.09622 4.08263,0 q 4.32278,0 7.00451,-1.3209 2.72175,-1.3608 4.08263,-3.3621 z" />
  </g>
</svg>
