<?xml version="1.0" encoding="UTF-8" standalone="no"?>
<svg
   xmlns:dc="http://purl.org/dc/elements/1.1/"
   xmlns:cc="http://creativecommons.org/ns#"
   xmlns:rdf="http://www.w3.org/1999/02/22-rdf-syntax-ns#"
   xmlns:svg="http://www.w3.org/2000/svg"
   xmlns="http://www.w3.org/2000/svg"
   width="370.59"
   height="71.662003"
   viewBox="0 0 370.59 71.662004"
   id="svg3766"
   version="1.1">
  <title
     id="title3721">Logo CertiPET</title>
  <defs
     id="defs3768" />
  <metadata
     id="metadata3771">
    <rdf:RDF>
      <cc:Work
         rdf:about="">
        <dc:format>image/svg+xml</dc:format>
        <dc:type
           rdf:resource="http://purl.org/dc/dcmitype/StillImage" />
        <dc:title>Logo CertiPET</dc:title>
        <dc:creator>
          <cc:Agent>
            <dc:title>Dyonnatan</dc:title>
          </cc:Agent>
        </dc:creator>
        <dc:subject>
          <rdf:Bag>
            <rdf:li>CertiPET</rdf:li>
          </rdf:Bag>
        </dc:subject>
      </cc:Work>
    </rdf:RDF>
  </metadata>
  <g
     id="layer1"
     transform="translate(0,-980.70016)">
    <path
       style="font-style:normal;font-variant:normal;font-weight:normal;font-stretch:normal;font-size:medium;line-height:125%;font-family:'Gentium Book Basic';-inkscape-font-specification:'Gentium Book Basic';letter-spacing:0px;word-spacing:0px;fill:#ffcc00;fill-opacity:1;stroke:none"
       d="m 229.33789,0.00195313 c -0.0387,-0.0627 -3.47971,2.00636377 -5.24414,3.15234377 -3.0093,1.95451 -6.04592,4.1314656 -9.08984,6.5097656 l 6.57421,0 c 1.92312,-1.94059 3.88221,-3.8622925 5.90626,-5.7578125 1.51743,-1.42108 2.7426,-2.637225 2.7207,-2.703125 -0.0219,-0.0659 -0.22037,-0.35553813 -0.44141,-0.64257812 -0.22105,-0.28704001 -0.41328,-0.53840376 -0.42578,-0.55859375 z M 201.44141,21.5625 c -8.93026,8.672 -17.72869,18.880222 -25.96875,30.232422 l -0.86719,1.195312 -0.41211,-0.25 c -0.22715,-0.1373 -4.6802,-2.658415 -9.89453,-5.603515 l -9.48047,-5.355469 -0.49414,0.560547 c -0.27136,0.3078 -0.48054,0.620612 -0.46484,0.695312 0.0157,0.075 5.45719,6.438879 12.09179,14.142579 11.69787,13.582799 12.07616,14.005665 12.51172,14.009765 l 0.44922,0.0098 1.63477,-3.240235 c 6.54483,-12.9736 13.37641,-24.33714 20.9121,-34.68164 l 0,-11.523438 c 0,-0.08 -0.01,-0.1303 -0.0176,-0.1875 l 0,-0.0039 z"
       transform="translate(0,980.70016)"
       id="path3735" />
    <path
       style="font-style:normal;font-variant:normal;font-weight:normal;font-stretch:normal;font-size:medium;line-height:125%;font-family:'Gentium Book Basic';-inkscape-font-specification:'Gentium Book Basic';letter-spacing:0px;word-spacing:0px;fill:#000080;fill-opacity:1;stroke:none"
       d="m 197.57422,13.664062 0,2.841797 c 0.72046,0.0534 1.57325,0.160213 2.56055,0.320313 1.01399,0.13342 2.02898,0.373803 3.04296,0.720703 0.98731,0.37357 1.61403,0.934491 1.88086,1.681641 0.26684,0.74715 0.40039,1.587584 0.40039,2.521484 l 0,40.986328 c 0,1.0407 -0.18697,1.893447 -0.56054,2.560547 -0.34689,0.6671 -0.92019,1.174584 -1.72071,1.521484 -0.4803,0.2134 -1.33504,0.387985 -2.5625,0.521485 -1.20077,0.1334 -2.1213,0.225997 -2.76171,0.279297 l 0,2.841797 24.375,0 0,-2.841797 c -1.01398,-0.027 -2.13387,-0.119197 -3.36133,-0.279297 -1.20078,-0.1601 -2.04118,-0.334685 -2.52149,-0.521485 -0.96062,-0.3736 -1.60167,-0.907762 -1.92187,-1.601562 -0.29352,-0.7205 -0.43946,-1.546469 -0.43945,-2.480469 l 0,-17.210937 6.36328,0 c 2.72175,0 5.29638,-0.347216 7.72461,-1.041016 2.42823,-0.6938 4.65757,-1.78695 6.68554,-3.28125 2.05466,-1.4943 3.65536,-3.376431 4.80274,-5.644531 1.17411,-2.2948 1.76172,-4.922866 1.76172,-7.884766 0,-4.2428 -1.65409,-7.631055 -4.96289,-10.166016 -3.28211,-2.56164 -7.56621,-3.84375 -12.84961,-3.84375 l -25.93555,0 z m 49.75195,0 0,2.841797 c 0.72047,0.0534 1.68009,0.213629 2.88086,0.480469 1.22746,0.26684 2.20142,0.575005 2.92188,0.921875 0.93394,0.42695 1.54826,0.985928 1.84179,1.679688 0.29352,0.6671 0.43946,1.441665 0.43946,2.322265 l 0,40.826172 c 0,0.9873 -0.17263,1.801006 -0.51954,2.441406 -0.32019,0.6405 -0.90782,1.160247 -1.76171,1.560547 -0.40026,0.1868 -1.26738,0.373747 -2.60157,0.560547 -1.33419,0.1602 -2.40065,0.267013 -3.20117,0.320313 l 0,2.841797 47.15039,0 1.08008,-16.730469 -2.88281,0 c -0.37358,1.2274 -1.24068,3.148672 -2.60156,5.763672 -1.33418,2.5884 -2.61434,4.521934 -3.8418,5.802734 -0.45363,0.4803 -1.22824,0.868609 -2.32227,1.162109 -1.06735,0.2668 -2.10711,0.453847 -3.12109,0.560547 -0.98731,0.1068 -2.20165,0.160157 -3.64258,0.160157 l -3.48242,0 c -2.21476,0 -3.92228,-0.06797 -5.12305,-0.201172 -1.20077,-0.1601 -2.14801,-0.493 -2.84179,-1 -0.69378,-0.507 -1.16023,-1.254888 -1.40039,-2.242188 -0.24016,-0.9873 -0.36132,-2.335269 -0.36133,-4.042969 l 0,-17.050781 6.40429,0 c 1.73446,0 3.12341,0.160269 4.16407,0.480469 1.06736,0.3202 2.01459,1.000315 2.84179,2.041015 0.50699,0.6404 0.98584,1.682147 1.43946,3.123047 0.48031,1.4143 0.77413,2.762169 0.88086,4.042969 l 3.00195,0 0,-22.214844 -3.00195,0 c -0.13341,1.1474 -0.4129,2.374141 -0.83985,3.681641 -0.40025,1.2808 -0.89342,2.308231 -1.48047,3.082031 -0.72047,0.9073 -1.56281,1.560638 -2.52343,1.960938 -0.93393,0.3735 -2.42777,0.560547 -4.48243,0.560547 l -6.40429,0 0,-22.574219 8.92578,0 c 1.46761,0 2.77643,0.02668 3.92383,0.08008 1.14741,0.0534 2.13373,0.133494 2.96093,0.240234 1.60103,0.21347 3.28184,1.468872 5.04297,3.763672 1.78782,2.2681 2.94875,4.41536 3.48242,6.44336 l 3.00196,0 0,-13.689454 -43.94727,0 z m 50.79297,0 0,15.410157 2.80078,0 c 0.24015,-0.8806 0.66752,-1.988066 1.28125,-3.322266 0.61373,-1.3609 1.32059,-2.640997 2.1211,-3.841797 0.80052,-1.2008 1.66762,-2.269185 2.60156,-3.203125 0.96061,-0.96062 1.88117,-1.492869 2.76172,-1.599609 1.12073,-0.13344 2.29403,-0.213565 3.52148,-0.240234 1.22746,-0.0534 2.25483,-0.08008 3.08203,-0.08008 l 2.32227,0 0,45.789063 c 0,1.094 -0.21369,1.973525 -0.64063,2.640625 -0.40026,0.6404 -1.04131,1.135522 -1.92187,1.482422 -0.58705,0.2402 -1.65351,0.439509 -3.20117,0.599609 -1.52098,0.1601 -2.6552,0.267013 -3.40235,0.320313 l 0,2.841797 26.81836,0 0,-2.841797 c -0.85388,-0.027 -2.05584,-0.199332 -3.60351,-0.519532 -1.52097,-0.3202 -2.52165,-0.574918 -3.00196,-0.761718 -0.93393,-0.4003 -1.58735,-0.959188 -1.96093,-1.679688 -0.37357,-0.7472 -0.56055,-1.562759 -0.56055,-2.443359 l 0,-45.427735 2.32226,0 c 1.06736,0 2.22829,0.02668 3.48243,0.08008 1.25415,0.0534 2.29389,0.133494 3.12109,0.240234 0.88056,0.13342 1.78872,0.665669 2.72266,1.599609 0.96062,0.90724 1.8401,1.975625 2.64062,3.203125 0.77383,1.1741 1.4683,2.427519 2.08203,3.761719 0.64041,1.3075 1.08016,2.441644 1.32031,3.402344 l 2.76172,0 0,-15.410157 -49.4707,0 z m -84.13476,3.283204 5.64257,0 c 2.26813,0 4.16263,0.347235 5.6836,1.041015 1.52099,0.69378 2.74966,1.667775 3.68359,2.921875 0.88057,1.1741 1.49295,2.546694 1.83984,4.121094 0.37358,1.5743 0.56055,3.123531 0.56055,4.644531 0,1.0941 -0.14593,2.333203 -0.43945,3.720703 -0.29353,1.3609 -0.89354,2.682091 -1.80078,3.962891 -0.90727,1.3342 -2.26949,2.455981 -4.08399,3.363281 -1.78782,0.8805 -4.12204,1.320313 -7.0039,1.320313 l -4.08203,0 0,-25.095703 z"
       transform="translate(0,980.70016)"
       id="path3731" />
    <path
       style="font-style:normal;font-variant:normal;font-weight:normal;font-stretch:normal;font-size:medium;line-height:125%;font-family:'Gentium Book Basic';-inkscape-font-specification:'Gentium Book Basic';letter-spacing:0px;word-spacing:0px;fill:#000080;fill-opacity:1;stroke:none"
       d="m 155.69922,15.986328 c -0.72046,0 -1.40061,0.145933 -2.04102,0.439453 -0.64041,0.26684 -1.19937,0.65513 -1.67968,1.16211 -0.48031,0.507 -0.86859,1.107001 -1.16211,1.800781 -0.26684,0.6938 -0.40039,1.439734 -0.40039,2.240234 0,1.3342 0.34723,2.349169 1.04101,3.042969 0.72047,0.6671 1.72113,1 3.00195,1 0.74715,0 1.44163,-0.145953 2.08204,-0.439453 0.6671,-0.2936 1.24039,-0.694172 1.7207,-1.201172 0.48031,-0.507 0.85425,-1.106981 1.12109,-1.800781 0.29352,-0.6938 0.43946,-1.441688 0.43946,-2.242188 0,-1.36086 -0.37395,-2.361543 -1.1211,-3.001953 -0.74715,-0.6671 -1.74781,-1 -3.00195,-1 z M 24.65625,18.828125 c -3.38885,0 -6.577806,0.667753 -9.566406,2.001953 -2.98859,1.3342 -5.6042634,3.228694 -7.8457034,5.683594 C 5.0027007,28.968572 3.229395,31.929638 1.921875,35.398438 0.64105502,38.867337 0,42.736459 0,47.005859 c 0,3.8691 0.58762877,7.33765 1.7617188,10.40625 1.17408,3.042 2.7213381,5.61661 4.6425781,7.72461 1.9212299,2.108 4.1095331,3.72305 6.5644531,4.84375 2.45492,1.1207 4.949415,1.68164 7.484375,1.68164 1.44093,0 2.881336,-0.174584 4.322266,-0.521484 1.46761,-0.3202 2.961441,-0.852409 4.482421,-1.599609 1.520981,-0.7738 3.070192,-1.774554 4.644532,-3.001954 1.60104,-1.227499 3.25513,-2.735637 4.96289,-4.523437 -0.08,-0.08 -0.186892,-0.213591 -0.320312,-0.400391 -0.13342,-0.2134 -0.281306,-0.427125 -0.441406,-0.640625 -0.1601,-0.2401 -0.318416,-0.453825 -0.478516,-0.640625 -0.16011,-0.2135 -0.307986,-0.359353 -0.441406,-0.439453 -1.44092,1.2008 -2.82791,2.213816 -4.16211,3.041016 -1.3075,0.8005 -2.536183,1.45599 -3.683593,1.962891 -1.1474,0.480399 -2.20149,0.825562 -3.16211,1.039062 -0.96062,0.2135 -1.801024,0.320312 -2.521484,0.320312 -1.84118,0 -3.721338,-0.413034 -5.642578,-1.240234 -1.92124,-0.8539 -3.655455,-2.134097 -5.203125,-3.841797 -1.54766,-1.7345 -2.8154346,-3.896075 -3.8027346,-6.484375 -0.9873,-2.615 -1.4804688,-5.670415 -1.4804688,-9.166015 0,-2.7751 0.213685,-5.242897 0.640625,-7.404297 0.45363,-2.1614 1.0392957,-4.055794 1.7597656,-5.683594 0.7204608,-1.6277 1.5608648,-3.002347 2.5214848,-4.123047 0.96062,-1.1474 1.94891,-2.067919 2.96289,-2.761719 1.04067,-0.7205 2.080414,-1.2423 3.121094,-1.5625 1.06735,-0.3202 2.055641,-0.478515 2.962891,-0.478515 2.3215,0 4.388625,0.452175 6.203125,1.359375 1.84119,0.8806 3.441854,2.121656 4.802734,3.722656 l 1.802734,0.361328 c 0.32021,-0.3202 0.718909,-0.788644 1.199219,-1.402344 0.48031,-0.6404 0.934388,-1.279422 1.361328,-1.919922 0.45363,-0.667 0.813238,-1.267181 1.080078,-1.800781 0.26684,-0.5337 0.320257,-0.868553 0.160157,-1.001953 -0.69378,-0.5603 -1.519839,-1.080247 -2.480469,-1.560547 -0.93393,-0.4803 -1.975647,-0.893334 -3.123047,-1.240234 -1.14741,-0.3735 -2.386513,-0.66743 -3.720703,-0.880859 -1.30751,-0.213471 -2.682127,-0.320313 -4.123047,-0.320313 z m 101.94531,0.279297 -5.88476,4.763672 0,9.365234 -2.88086,0 -3.12305,2.962891 0.96094,1.240234 5.04297,0 0,23.855469 c 0,1.8679 0.2013,3.456172 0.60156,4.763672 0.40026,1.3075 0.93447,2.373972 1.60156,3.201172 0.69378,0.8272 1.49314,1.427181 2.40039,1.800781 0.90725,0.4002 1.8545,0.601562 2.8418,0.601562 1.41424,0 3.33544,-0.519946 5.76367,-1.560547 2.42823,-1.067399 5.10969,-2.682349 8.04492,-4.84375 l -1.36132,-2.322265 c -2.13471,1.094 -3.88132,1.841987 -5.24219,2.242187 -1.36088,0.3736 -2.50943,0.560547 -3.44336,0.560547 -0.69378,0 -1.29378,-0.121228 -1.80078,-0.361328 -0.50699,-0.2669 -0.92003,-0.706512 -1.24024,-1.320312 -0.32021,-0.6404 -0.5606,-1.466469 -0.7207,-2.480469 -0.16011,-1.014 -0.24024,-2.281735 -0.24023,-3.802734 l 0,-20.333985 2.28124,0 c 1.92125,0 3.52191,0.160269 4.80274,0.480469 1.3075,0.2936 2.28146,0.599622 2.92187,0.919922 0.26684,-0.1602 0.57498,-0.39855 0.92188,-0.71875 0.37357,-0.3202 0.74752,-0.681831 1.12109,-1.082032 0.37357,-0.4003 0.73319,-0.82765 1.08008,-1.28125 0.37357,-0.4536 0.67977,-0.879096 0.91992,-1.279296 l -1.24023,-1.242188 -12.80859,0 0,-13.007812 -1.32032,-1.121094 z M 63.201172,32.037109 c -0.80051,0 -1.640924,0.092 -2.521484,0.279297 -0.88057,0.1868 -1.747673,0.439566 -2.601563,0.759766 -0.8272,0.2935 -1.628514,0.640815 -2.402344,1.041016 -0.77383,0.4003 -1.480683,0.827649 -2.121093,1.28125 -1.387561,0.960699 -2.616234,2.080428 -3.683594,3.361328 -1.06735,1.2808 -1.973553,2.669762 -2.720703,4.164062 -0.72047,1.4943 -1.281391,3.094934 -1.681641,4.802734 -0.37358,1.7077 -0.560547,3.456341 -0.560547,5.244141 0,2.8285 0.42737,5.388794 1.28125,7.683594 0.85388,2.2948 2.000466,4.257065 3.441406,5.884765 1.44092,1.627701 3.109357,2.895535 5.003907,3.802735 1.92124,0.8806 3.949274,1.320312 6.083984,1.320312 1.44093,0 2.762121,-0.106812 3.962891,-0.320312 1.22746,-0.2135 2.45418,-0.64085 3.68164,-1.28125 1.25414,-0.6671 2.575331,-1.587619 3.962891,-2.761719 1.38756,-1.1741 2.988234,-2.721378 4.802734,-4.642578 -0.13342,-0.2135 -0.359487,-0.5464 -0.679687,-1 -0.32021,-0.4537 -0.65312,-0.774138 -1,-0.960938 -1.52098,1.1741 -2.842171,2.106982 -3.962891,2.800782 -1.12073,0.6938 -2.135729,1.227962 -3.042969,1.601562 -0.90726,0.3469 -1.760036,0.572888 -2.560547,0.679688 -0.77383,0.1067 -1.575143,0.160156 -2.402343,0.160156 -1.73445,0 -3.296034,-0.386356 -4.683594,-1.160156 -1.36088,-0.8006 -2.519849,-1.866972 -3.480469,-3.201172 -0.96062,-1.3342 -1.708507,-2.895794 -2.242187,-4.683594 -0.5337,-1.8145 -0.813174,-3.735672 -0.839844,-5.763672 l 20.332031,0 c 0.85389,-0.3469 1.747711,-0.77425 2.681641,-1.28125 0.93394,-0.5337 1.640784,-1.067862 2.121094,-1.601562 0,-1.2275 -0.106853,-2.480919 -0.320313,-3.761719 -0.21348,-1.2808 -0.560705,-2.521856 -1.041016,-3.722656 -0.45363,-1.2007 -1.053631,-2.335044 -1.800781,-3.402344 -0.72047,-1.0674 -1.61429,-1.987919 -2.68164,-2.761719 -1.04067,-0.8005 -2.255019,-1.427159 -3.642579,-1.880859 -1.387559,-0.4536 -2.94719,-0.679688 -4.68164,-0.679688 z m 29.859375,0 c -0.80051,0.3736 -1.61616,0.7065 -2.443359,1 -0.800521,0.2669 -1.626589,0.519666 -2.480469,0.759766 -0.85388,0.2402 -1.747711,0.468141 -2.681641,0.681641 -0.93394,0.2134 -1.934593,0.427225 -3.001953,0.640625 l 0,2 c 0.74715,0.053 1.361487,0.106756 1.841797,0.160156 0.50699,0.027 0.932407,0.07996 1.279297,0.160156 0.34689,0.08 0.628327,0.186913 0.841797,0.320313 0.21347,0.1067 0.412829,0.254606 0.599609,0.441406 0.10674,0.1334 0.213572,0.306031 0.320313,0.519531 0.13342,0.2135 0.240262,0.507259 0.320312,0.880859 0.0801,0.373501 0.145879,0.866769 0.199219,1.480469 0.0534,0.5871 0.08008,1.320672 0.08008,2.201172 l 0,22.615235 c 1e-5,0.4537 -0.478833,0.880949 -1.439453,1.28125 -0.93393,0.373599 -2.281829,0.759856 -4.042969,1.160156 l 0,2.121094 19.572263,0 0,-2.121094 c -2.508287,-0.3736 -4.283546,-0.774272 -5.324216,-1.201172 -1.040673,-0.427 -1.560547,-0.839934 -1.560547,-1.240234 l 0,-16.291016 c 0.69378,-2.108 1.427329,-3.881366 2.201172,-5.322266 0.80051,-1.441 1.601824,-2.601822 2.402344,-3.482422 0.800507,-0.9072 1.560777,-1.56269 2.281247,-1.96289 0.74715,-0.4003 1.40058,-0.59961 1.96094,-0.59961 1.12072,0 2.06796,0.534263 2.84179,1.601563 0.77384,1.0674 1.30804,2.680397 1.60157,4.841797 l 2.12109,0 c 0.32021,-0.7205 0.65311,-1.667697 1,-2.841797 0.34689,-1.2008 0.62832,-2.386547 0.8418,-3.560547 0.24012,-1.1741 0.38605,-2.201431 0.43945,-3.082031 0.0534,-0.9072 -0.0391,-1.441463 -0.2793,-1.601563 -0.9873,-0.5604 -1.98796,-0.960972 -3.00195,-1.201172 -1.01399,-0.2401 -1.98793,-0.359375 -2.92187,-0.359375 -1.1474,0 -2.26924,0.252766 -3.36329,0.759766 -1.06735,0.4803 -2.09473,1.148153 -3.08203,2.001953 -0.960614,0.8539 -1.881143,1.854553 -2.761713,3.001953 -0.853883,1.1474 -1.640838,2.388556 -2.361328,3.722657 l -0.519531,-8.00586 -1.480469,-1.480469 z m 63.679683,0 c -1.52097,0.6671 -3.2552,1.267082 -5.20312,1.800782 -1.92124,0.5337 -3.82811,0.96105 -5.72266,1.28125 l 0,2 c 1.41425,0.1335 2.49504,0.308084 3.24219,0.521484 0.74715,0.2135 1.2794,0.558763 1.59961,1.039063 0.18948,0.247799 0.32593,0.561987 0.41992,0.929687 0.0215,-0.025 0.0386,-0.05313 0.0606,-0.07813 l 2.77148,-3.144531 4.59375,2.59375 0,-6.94336 -1.76172,0 z m -94.781246,4.402344 c 1.62772,0 2.948911,0.347216 3.962891,1.041016 1.01399,0.6938 1.800968,1.534084 2.361328,2.521484 0.58705,0.9873 0.987702,2.014631 1.201172,3.082031 0.21347,1.0673 0.320313,1.973503 0.320313,2.720704 0,0.5604 -0.106843,0.948609 -0.320313,1.162109 -0.18678,0.1868 -0.587442,0.279297 -1.201172,0.279297 l -15.849609,0 c 0.21348,-1.601 0.573088,-3.068144 1.080078,-4.402344 0.53367,-1.3342 1.201443,-2.468344 2.001953,-3.402344 0.80052,-0.9606 1.733431,-1.694172 2.800781,-2.201172 1.09404,-0.5336 2.308388,-0.800781 3.642578,-0.800781 z m 89.337896,10.166016 0,19.292969 c 0,0.373599 -0.46646,0.786634 -1.4004,1.240234 -0.90725,0.4269 -2.26753,0.827572 -4.08203,1.201172 l 0,2.121094 18.21094,0 0,-2.121094 c -1.94792,-0.3736 -3.36162,-0.786635 -4.24219,-1.240235 -0.85388,-0.4803 -1.28125,-0.880972 -1.28125,-1.201171 l 0,-10.871094 c -1.50503,-1.7519 -3.2001,-3.721078 -4.30859,-5.017578 -1.09829,-1.2846 -1.98906,-2.33106 -2.61328,-3.06836 -0.12021,-0.142 -0.18309,-0.217137 -0.2832,-0.335937 z"
       transform="translate(0,980.70016)"
       id="path3727" />
  </g>
  <text
     transform="matrix(0,-1,1,0,0,0)"
     id="text3709"
     y="369.87943"
     x="-71.763367"
     style="font-style:normal;font-variant:normal;font-weight:normal;font-stretch:normal;font-size:31.76570702px;line-height:125%;font-family:'Gentium Basic';-inkscape-font-specification:'Gentium Basic, Normal';text-align:start;letter-spacing:0px;word-spacing:0px;writing-mode:lr-tb;text-anchor:start;fill:#808080;fill-opacity:1;stroke:none;stroke-width:1px;stroke-linecap:butt;stroke-linejoin:miter;stroke-opacity:1"
     xml:space="preserve"><tspan
       y="369.87943"
       x="-71.763367"
       id="tspan3711">Beta</tspan></text>
</svg>
