<?xml version="1.0" encoding="UTF-8" standalone="no"?>
<svg
   xmlns:dc="http://purl.org/dc/elements/1.1/"
   xmlns:cc="http://creativecommons.org/ns#"
   xmlns:rdf="http://www.w3.org/1999/02/22-rdf-syntax-ns#"
   xmlns:svg="http://www.w3.org/2000/svg"
   xmlns="http://www.w3.org/2000/svg"
   width="370.59"
   height="71.662003"
   viewBox="0 0 370.59 71.662004"
   id="svg3766"
   version="1.1">
  <title
     id="title3713">Logomarca CertiPET Beta</title>
  <defs
     id="defs3768" />
  <metadata
     id="metadata3771">
    <rdf:RDF>
      <cc:Work
         rdf:about="">
        <dc:format>image/svg+xml</dc:format>
        <dc:type
           rdf:resource="http://purl.org/dc/dcmitype/StillImage" />
        <dc:title>Logomarca CertiPET Beta</dc:title>
        <dc:creator>
          <cc:Agent>
            <dc:title>Dyonnatan Ferreira Maia</dc:title>
          </cc:Agent>
        </dc:creator>
        <dc:subject>
          <rdf:Bag>
            <rdf:li>CertiPet</rdf:li>
          </rdf:Bag>
        </dc:subject>
      </cc:Work>
    </rdf:RDF>
  </metadata>
  <g
     id="layer1"
     transform="translate(0,-980.70016)">
    <path
       style="font-style:normal;font-variant:normal;font-weight:normal;font-stretch:normal;font-size:medium;line-height:125%;font-family:'Gentium Book Basic';-inkscape-font-specification:'Gentium Book Basic';letter-spacing:0px;word-spacing:0px;fill:#f9f9f9;fill-opacity:1;stroke:none"
       d="m 229.33797,980.70179 c -0.0387,-0.0627 -3.47971,2.00636 -5.24414,3.15234 -3.0093,1.95451 -6.04593,4.13146 -9.08985,6.50976 l 6.57422,0 c 1.92311,-1.94059 3.8822,-3.86229 5.90625,-5.75781 1.51744,-1.42108 2.74261,-2.63722 2.72071,-2.70312 -0.0219,-0.0659 -0.22037,-0.35554 -0.44141,-0.64258 -0.22105,-0.28704 -0.41328,-0.5384 -0.42578,-0.55859 z m -31.76367,13.6621 0,2.8418 c 0.72046,0.0534 1.57324,0.16021 2.56054,0.32031 1.01399,0.13342 2.02899,0.37381 3.04297,0.72071 0.98731,0.37357 1.61403,0.93449 1.88086,1.68164 0.26684,0.74715 0.40039,1.58755 0.40039,2.52145 l 0,40.9863 c 0,1.0407 -0.18697,1.8935 -0.56054,2.5606 -0.34689,0.6671 -0.92019,1.1746 -1.72071,1.5215 -0.4803,0.2134 -1.33504,0.388 -2.5625,0.5215 -1.20077,0.1334 -2.12131,0.2259 -2.76172,0.2792 l 0,2.8418 24.375,0 0,-2.8418 c -1.01398,-0.027 -2.13386,-0.1191 -3.36132,-0.2792 -1.20078,-0.1601 -2.04118,-0.3347 -2.52149,-0.5215 -0.96062,-0.3736 -1.60167,-0.9078 -1.92187,-1.6016 -0.29352,-0.7205 -0.43946,-1.5465 -0.43946,-2.4805 l 0,-17.2109 6.36328,0 c 2.72175,0 5.29638,-0.3472 7.72461,-1.041 2.42823,-0.6938 4.65758,-1.787 6.68555,-3.2813 2.05466,-1.4943 3.65535,-3.3764 4.80273,-5.6445 1.17411,-2.2948 1.76172,-4.9228 1.76172,-7.8847 0,-4.2428 -1.65409,-7.6311 -4.96289,-10.16606 -3.28211,-2.56164 -7.56621,-3.84375 -12.84961,-3.84375 l -25.93554,0 z m 49.75195,0 0,2.8418 c 0.72047,0.0534 1.68009,0.21363 2.88086,0.48047 1.22746,0.26684 2.20141,0.575 2.92187,0.92187 0.93394,0.42695 1.54827,0.98591 1.8418,1.67967 0.29352,0.6671 0.43945,1.4417 0.43945,2.3223 l 0,40.8261 c 0,0.9873 -0.17263,1.801 -0.51953,2.4414 -0.3202,0.6405 -0.90783,1.1603 -1.76172,1.5606 -0.40026,0.1868 -1.26737,0.3737 -2.60156,0.5605 -1.33419,0.1602 -2.40065,0.267 -3.20117,0.3203 l 0,2.8418 47.15039,0 1.08008,-16.7304 -2.88281,0 c -0.37358,1.2274 -1.24069,3.1486 -2.60157,5.7636 -1.33418,2.5884 -2.61433,4.522 -3.84179,5.8028 -0.45363,0.4803 -1.22824,0.8686 -2.32227,1.1621 -1.06735,0.2668 -2.10711,0.4538 -3.12109,0.5605 -0.98731,0.1068 -2.20165,0.1602 -3.64258,0.1602 l -3.48242,0 c -2.21476,0 -3.92228,-0.068 -5.12305,-0.2012 -1.20077,-0.1601 -2.14802,-0.493 -2.8418,-1 -0.69378,-0.507 -1.16023,-1.2549 -1.40039,-2.2422 -0.24015,-0.9873 -0.36132,-2.3352 -0.36133,-4.0429 l 0,-17.0508 6.4043,0 c 1.73446,0 3.1234,0.1603 4.16406,0.4805 1.06736,0.3202 2.0146,1.0003 2.8418,2.041 0.50699,0.6404 0.98583,1.6821 1.43945,3.123 0.48031,1.4143 0.77413,2.7622 0.88086,4.043 l 3.00196,0 0,-22.2148 -3.00196,0 c -0.13341,1.1474 -0.41289,2.3741 -0.83984,3.6816 -0.40025,1.2808 -0.89342,2.3082 -1.48047,3.082 -0.72047,0.9073 -1.56282,1.5607 -2.52344,1.961 -0.93393,0.3735 -2.42776,0.5605 -4.48242,0.5605 l -6.4043,0 0,-22.5742 8.92579,0 c 1.46761,0 2.77642,0.0267 3.92382,0.0801 1.14741,0.0534 2.13374,0.1335 2.96094,0.24024 1.60103,0.21347 3.28184,1.46886 5.04297,3.76366 1.78782,2.2681 2.94875,4.4154 3.48242,6.4434 l 3.00196,0 0,-13.68949 -43.94727,0 z m 50.79297,0 0,15.41021 2.80078,0 c 0.24015,-0.8806 0.66752,-1.9881 1.28125,-3.3223 0.61373,-1.3609 1.32058,-2.641 2.12109,-3.8418 0.80052,-1.2008 1.66763,-2.2692 2.60157,-3.20314 0.96061,-0.96062 1.88116,-1.49287 2.76171,-1.59961 1.12073,-0.13344 2.29404,-0.21356 3.52149,-0.24023 1.22746,-0.0534 2.25483,-0.0801 3.08203,-0.0801 l 2.32227,0 0,45.78908 c 0,1.094 -0.21369,1.9735 -0.64063,2.6406 -0.40026,0.6404 -1.04131,1.1355 -1.92187,1.4824 -0.58705,0.2402 -1.65352,0.4395 -3.20118,0.5996 -1.52098,0.1601 -2.65519,0.267 -3.40234,0.3203 l 0,2.8418 26.81836,0 0,-2.8418 c -0.85388,-0.027 -2.05585,-0.1993 -3.60352,-0.5195 -1.52097,-0.3202 -2.52164,-0.5749 -3.00195,-0.7617 -0.93393,-0.4003 -1.58736,-0.9592 -1.96094,-1.6797 -0.37357,-0.7472 -0.56054,-1.5628 -0.56054,-2.4434 l 0,-45.42768 2.32226,0 c 1.06736,0 2.22828,0.0267 3.48242,0.0801 1.25415,0.0534 2.2939,0.13349 3.1211,0.24023 0.88056,0.13342 1.78871,0.66567 2.72265,1.59961 0.96062,0.90724 1.84011,1.97564 2.64063,3.20314 0.77383,1.1741 1.4683,2.4275 2.08203,3.7617 0.64041,1.3075 1.08016,2.4417 1.32031,3.4024 l 2.76172,0 0,-15.41021 -49.4707,0 z m -142.41992,2.32227 c -0.72046,0 -1.40061,0.14593 -2.04102,0.43945 -0.64041,0.26684 -1.19938,0.65513 -1.67969,1.16211 -0.48031,0.507 -0.86859,1.107 -1.16211,1.80078 -0.26684,0.6938 -0.40039,1.4397 -0.40039,2.2402 0,1.3342 0.34724,2.3492 1.04102,3.043 0.72047,0.6671 1.72113,1 3.00195,1 0.74715,0 1.44162,-0.1459 2.08203,-0.4394 0.6671,-0.2936 1.2404,-0.6942 1.72071,-1.2012 0.48031,-0.507 0.85425,-1.107 1.12109,-1.8008 0.29352,-0.6938 0.43945,-1.4417 0.43945,-2.2422 0,-1.36086 -0.37394,-2.36153 -1.12109,-3.00194 -0.74715,-0.6671 -1.74781,-1 -3.00195,-1 z m 58.28515,0.96094 5.64258,0 c 2.26813,0 4.16262,0.34723 5.68359,1.04101 1.52099,0.69378 2.74967,1.66779 3.6836,2.92189 0.88057,1.1741 1.49295,2.5467 1.83984,4.1211 0.37358,1.5743 0.56055,3.1235 0.56055,4.6445 0,1.0941 -0.14593,2.3332 -0.43945,3.7207 -0.29353,1.3609 -0.89354,2.6821 -1.80078,3.9629 -0.90727,1.3342 -2.26949,2.456 -4.08399,3.3633 -1.78782,0.8805 -4.12205,1.3203 -7.00391,1.3203 l -4.08203,0 0,-25.0957 z m -189.328123,1.88086 c -3.38885,0 -6.57781,0.66774 -9.56641,2.00194 -2.98859,1.3342 -5.6042604,3.2287 -7.8457004,5.6836 -2.2414399,2.4549 -4.0147499,5.4159 -5.3222699,8.8847 -1.28081998,3.4689 -1.921869981055,7.3381 -1.921869981055,11.6075 0,3.8691 0.587630001055,7.3376 1.761719981055,10.4062 1.17408,3.042 2.72134,5.6166 4.64258,7.7246 1.9212299,2.108 4.1095303,3.7231 6.5644503,4.8438 2.45492,1.1207 4.94941,1.6816 7.48437,1.6816 1.44093,0 2.88134,-0.1746 4.32227,-0.5215 1.46761,-0.3202 2.96144,-0.8524 4.48242,-1.5996 1.52098,-0.7738 3.07019,-1.7745 4.64453,-3.0019 1.60104,-1.2275 3.25513,-2.7357 4.96289,-4.5235 -0.08,-0.08 -0.18689,-0.2136 -0.32031,-0.4004 -0.13342,-0.2134 -0.28131,-0.4271 -0.44141,-0.6406 -0.1601,-0.2401 -0.31841,-0.4538 -0.47851,-0.6406 -0.16011,-0.2135 -0.30799,-0.3594 -0.44141,-0.4395 -1.44092,1.2008 -2.82791,2.2139 -4.16211,3.0411 -1.3075,0.8005 -2.53618,1.4559 -3.68359,1.9628 -1.1474,0.4804 -2.20149,0.8256 -3.16211,1.0391 -0.96062,0.2135 -1.80102,0.3203 -2.52148,0.3203 -1.84118,0 -3.72134,-0.413 -5.64258,-1.2402 -1.92124,-0.8539 -3.65546,-2.1341 -5.20313,-3.8418 -1.54766,-1.7345 -2.8154304,-3.8961 -3.8027304,-6.4844 -0.9873,-2.615 -1.48047,-5.6704 -1.48047,-9.166 0,-2.7751 0.21368,-5.2429 0.64062,-7.4043 0.45363,-2.1614 1.0393,-4.0558 1.75977,-5.6836 0.7204604,-1.6277 1.5608604,-3.0023 2.5214804,-4.123 0.96062,-1.1474 1.94891,-2.0679 2.96289,-2.7617 1.04067,-0.7205 2.08042,-1.2423 3.1211,-1.5625 1.06735,-0.3202 2.05564,-0.4785 2.96289,-0.4785 2.3215,0 4.38862,0.4521 6.20312,1.3593 1.84119,0.8806 3.44186,2.1217 4.80274,3.7227 l 1.80273,0.3613 c 0.32021,-0.3202 0.71891,-0.7886 1.19922,-1.4023 0.48031,-0.6404 0.93439,-1.2795 1.36133,-1.92 0.45363,-0.667 0.81324,-1.2671 1.08008,-1.8007 0.26684,-0.5337 0.32025,-0.8686 0.16015,-1.002 -0.69378,-0.5603 -1.51984,-1.0802 -2.48047,-1.5605 -0.93393,-0.4803 -1.97564,-0.8934 -3.12304,-1.2403 -1.14741,-0.3735 -2.38651,-0.6674 -3.7207,-0.88083 -1.30751,-0.21347 -2.68213,-0.32031 -4.12305,-0.32031 z m 101.945313,0.27929 -5.88476,4.76365 0,9.3653 -2.88086,0 -3.12305,2.9628 0.96094,1.2403 5.04297,0 0,23.8554 c 0,1.8679 0.2013,3.4562 0.60156,4.7637 0.40026,1.3075 0.93447,2.374 1.60156,3.2012 0.69378,0.8272 1.49314,1.4272 2.40039,1.8008 0.90725,0.4002 1.8545,0.6015 2.8418,0.6015 1.41424,0 3.33544,-0.5199 5.76367,-1.5605 2.42823,-1.0674 5.10969,-2.6824 8.04492,-4.8438 l -1.36133,-2.3222 c -2.1347,1.094 -3.88131,1.8419 -5.24218,2.2421 -1.36088,0.3736 -2.50943,0.5606 -3.44336,0.5606 -0.69378,0 -1.29379,-0.1212 -1.80079,-0.3613 -0.50699,-0.2669 -0.92002,-0.7066 -1.24023,-1.3204 -0.32021,-0.6404 -0.5606,-1.4664 -0.7207,-2.4804 -0.16011,-1.014 -0.24024,-2.2818 -0.24024,-3.8028 l 0,-20.3339 2.28125,0 c 1.92124,0 3.52191,0.1602 4.80274,0.4804 1.3075,0.2936 2.28146,0.5997 2.92187,0.92 0.26684,-0.1602 0.57498,-0.3986 0.92188,-0.7188 0.37357,-0.3202 0.74752,-0.6818 1.12109,-1.082 0.37357,-0.4003 0.73319,-0.8277 1.08008,-1.2813 0.37357,-0.4536 0.67977,-0.879 0.91992,-1.2792 l -1.24023,-1.2422 -12.8086,0 0,-13.0078 -1.32031,-1.12115 z m 74.83984,2.45505 c -8.93026,8.672 -17.72869,18.8802 -25.96875,30.2324 l -0.86718,1.1953 -0.41211,-0.25 c -0.22715,-0.1373 -4.6802,-2.6584 -9.89453,-5.6035 l -9.48047,-5.3554 -0.49414,0.5605 c -0.27136,0.3078 -0.48055,0.6206 -0.46485,0.6953 0.0157,0.075 5.4572,6.4389 12.0918,14.1426 11.69787,13.5828 12.07616,14.0057 12.51172,14.0098 l 0.44922,0.01 1.63476,-3.2403 c 6.54484,-12.9736 13.37642,-24.3371 20.91211,-34.6816 l 0,-11.5234 c 0,-0.08 -0.01,-0.1303 -0.0176,-0.1875 z m -138.240233,10.4746 c -0.80051,0 -1.64092,0.092 -2.52148,0.2793 -0.88057,0.1868 -1.74768,0.4396 -2.60157,0.7598 -0.8272,0.2935 -1.62851,0.6408 -2.40234,1.041 -0.77383,0.4003 -1.48068,0.8276 -2.12109,1.2812 -1.38756,0.9607 -2.61624,2.0805 -3.6836,3.3614 -1.06735,1.2808 -1.97355,2.6697 -2.7207,4.164 -0.72047,1.4943 -1.28139,3.095 -1.68164,4.8028 -0.37358,1.7077 -0.56055,3.4563 -0.56055,5.2441 0,2.8285 0.42737,5.3888 1.28125,7.6836 0.85388,2.2948 2.00047,4.2571 3.44141,5.8848 1.44092,1.6277 3.10935,2.8955 5.0039,3.8027 1.92124,0.8806 3.94928,1.3203 6.08399,1.3203 1.44093,0 2.76212,-0.1068 3.96289,-0.3203 1.22746,-0.2135 2.45418,-0.6408 3.68164,-1.2812 1.25414,-0.6671 2.57533,-1.5877 3.96289,-2.7618 1.38756,-1.1741 2.98823,-2.7213 4.80273,-4.6425 -0.13342,-0.2135 -0.35948,-0.5464 -0.67968,-1 -0.32021,-0.4537 -0.65312,-0.7742 -1,-0.961 -1.52098,1.1741 -2.84217,2.107 -3.96289,2.8008 -1.12073,0.6938 -2.13573,1.228 -3.04297,1.6016 -0.90726,0.3469 -1.76004,0.5729 -2.56055,0.6797 -0.77383,0.1067 -1.57514,0.1601 -2.40234,0.1601 -1.73445,0 -3.29604,-0.3863 -4.6836,-1.1601 -1.36088,-0.8006 -2.51985,-1.867 -3.48047,-3.2012 -0.96062,-1.3342 -1.7085,-2.8958 -2.24218,-4.6836 -0.5337,-1.8145 -0.81318,-3.7357 -0.83985,-5.7637 l 20.33203,0 c 0.85389,-0.3469 1.74771,-0.7742 2.68164,-1.2812 0.93394,-0.5337 1.64079,-1.0679 2.1211,-1.6016 0,-1.2275 -0.10685,-2.4809 -0.32031,-3.7617 -0.21348,-1.2808 -0.56071,-2.5219 -1.04102,-3.7227 -0.45363,-1.2007 -1.05363,-2.335 -1.80078,-3.4023 -0.72047,-1.0674 -1.61429,-1.9879 -2.68164,-2.7617 -1.04067,-0.8005 -2.25502,-1.4272 -3.64258,-1.8809 -1.38756,-0.4536 -2.94719,-0.6797 -4.68164,-0.6797 z m 29.85937,0 c -0.80051,0.3736 -1.61615,0.7065 -2.44335,1 -0.80052,0.2669 -1.62659,0.5197 -2.48047,0.7598 -0.85388,0.2402 -1.74771,0.4682 -2.68164,0.6817 -0.93394,0.2134 -1.9346,0.4271 -3.00196,0.6405 l 0,2 c 0.74715,0.053 1.36149,0.1068 1.8418,0.1602 0.50699,0.027 0.93241,0.08 1.2793,0.1602 0.34689,0.08 0.62832,0.1869 0.84179,0.3203 0.21347,0.1067 0.41283,0.2546 0.59961,0.4414 0.10674,0.1334 0.21358,0.306 0.32032,0.5195 0.13342,0.2135 0.24026,0.5073 0.32031,0.8809 0.0801,0.3735 0.14588,0.8667 0.19922,1.4804 0.0534,0.5871 0.0801,1.3207 0.0801,2.2012 l 0,22.6152 c 1e-5,0.4537 -0.47883,0.881 -1.43945,1.2813 -0.93393,0.3736 -2.28183,0.7599 -4.04297,1.1602 l 0,2.121 19.572273,0 0,-2.121 c -2.50829,-0.3736 -4.28355,-0.7743 -5.32422,-1.2012 -1.040673,-0.427 -1.560553,-0.84 -1.560553,-1.2403 l 0,-16.291 c 0.69378,-2.108 1.42734,-3.8813 2.201183,-5.3222 0.80051,-1.441 1.60182,-2.6019 2.40234,-3.4825 0.80051,-0.9072 1.56078,-1.5626 2.28125,-1.9628 0.74715,-0.4003 1.40058,-0.5997 1.96094,-0.5997 1.12072,0 2.06796,0.5343 2.84179,1.6016 0.77383,1.0674 1.30804,2.6804 1.60157,4.8418 l 2.12109,0 c 0.32021,-0.7205 0.65311,-1.6677 1,-2.8418 0.34689,-1.2008 0.62832,-2.3865 0.8418,-3.5605 0.24012,-1.1741 0.38605,-2.2015 0.43945,-3.0821 0.0534,-0.9072 -0.0391,-1.4414 -0.2793,-1.6015 -0.9873,-0.5604 -1.98796,-0.961 -3.00195,-1.2012 -1.01399,-0.2401 -1.98794,-0.3594 -2.92188,-0.3594 -1.1474,0 -2.26924,0.2528 -3.36328,0.7598 -1.06735,0.4803 -2.09473,1.1481 -3.08203,2.0019 -0.96062,0.8539 -1.88115,1.8546 -2.76172,3.002 -0.853883,1.1474 -1.640843,2.3885 -2.361333,3.7226 l -0.51953,-8.0058 -1.48047,-1.4805 z m 63.679693,0 c -1.52097,0.6671 -3.2552,1.2671 -5.20312,1.8008 -1.92124,0.5337 -3.82811,0.961 -5.72266,1.2812 l 0,2 c 1.41425,0.1335 2.49504,0.3081 3.24219,0.5215 0.74715,0.2135 1.2794,0.5588 1.59961,1.0391 0.18948,0.2478 0.32593,0.562 0.41992,0.9297 0.0215,-0.025 0.0385,-0.053 0.0605,-0.078 l 2.77148,-3.1445 4.59375,2.5937 0,-6.9433 -1.76172,0 z m -94.781253,4.4024 c 1.62772,0 2.94891,0.3472 3.96289,1.041 1.01399,0.6938 1.80097,1.5341 2.36133,2.5215 0.58705,0.9873 0.9877,2.0146 1.20117,3.082 0.21347,1.0673 0.32032,1.9735 0.32032,2.7207 0,0.5604 -0.10685,0.9486 -0.32032,1.1621 -0.18678,0.1868 -0.58744,0.2793 -1.20117,0.2793 l -15.84961,0 c 0.21348,-1.601 0.57309,-3.0681 1.08008,-4.4023 0.53367,-1.3342 1.20144,-2.4684 2.00195,-3.4024 0.80052,-0.9606 1.73343,-1.6942 2.80078,-2.2012 1.09404,-0.5336 2.30839,-0.8007 3.64258,-0.8007 z m 89.337893,10.166 0,19.2929 c 0,0.3736 -0.46645,0.7867 -1.40039,1.2403 -0.90725,0.4269 -2.26753,0.8276 -4.08203,1.2012 l 0,2.121 18.21094,0 0,-2.121 c -1.94792,-0.3736 -3.36162,-0.7867 -4.24219,-1.2403 -0.85388,-0.4803 -1.28125,-0.881 -1.28125,-1.2012 l 0,-10.871 c -1.50503,-1.7519 -3.2001,-3.7211 -4.30859,-5.0176 -1.09829,-1.2846 -1.98906,-2.3311 -2.61328,-3.0684 -0.12021,-0.142 -0.1831,-0.2171 -0.28321,-0.3359 z"
       id="path3797" />
  </g>
  <text
     transform="matrix(0,-1,1,0,0,0)"
     id="text3709"
     y="369.62186"
     x="-70.790489"
     style="font-style:normal;font-variant:normal;font-weight:normal;font-stretch:normal;font-size:31.76570702px;line-height:125%;font-family:'Gentium Basic';-inkscape-font-specification:'Gentium Basic, Normal';text-align:start;letter-spacing:0px;word-spacing:0px;writing-mode:lr-tb;text-anchor:start;fill:#e6e6e6;fill-opacity:1;stroke:none;stroke-width:1px;stroke-linecap:butt;stroke-linejoin:miter;stroke-opacity:1"
     xml:space="preserve"><tspan
       y="369.62186"
       x="-70.790489"
       id="tspan3711">Beta</tspan></text>
</svg>
